<!-- Generator: Adobe Illustrator 18.1.0, SVG Export Plug-In  -->
<svg version="1.1"
	 xmlns="http://www.w3.org/2000/svg" xmlns:xlink="http://www.w3.org/1999/xlink" xmlns:a="http://ns.adobe.com/AdobeSVGViewerExtensions/3.0/"
	 x="0px" y="0px" width="294.156px" height="294.156px" viewBox="0 0 294.156 294.156" enable-background="new 0 0 294.156 294.156"
	 xml:space="preserve">
<defs>
</defs>
<path fill="#FFF100" d="M283.55,157.685L157.685,283.55c-5.858,5.858-15.355,5.858-21.213,0L10.607,157.685
	c-5.858-5.858-5.858-15.355,0-21.213L136.472,10.607c5.858-5.858,15.355-5.858,21.213,0L283.55,136.471
	C289.407,142.329,289.407,151.827,283.55,157.685z"/>
<rect x="43.078" y="43.078" transform="matrix(0.7071 -0.7071 0.7071 0.7071 -60.9217 147.0782)" fill="none" width="208" height="208"/>
<path fill="#EC1C24" d="M157.685,283.55l62.933-62.933l62.932-62.932c2.929-2.929,4.393-6.768,4.393-10.607h-52.602v57h-58.815v-57
	h-58.816v57H58.893v-57H6.213c0,3.839,1.464,7.678,4.393,10.607L136.471,283.55C142.329,289.408,151.827,289.408,157.685,283.55z"/>
<path fill="#231F20" d="M190.802,70.58h-38.514c0.012,0.316,0.042,0.628,0.042,0.948c0,11.627-8.249,21.052-18.424,21.052
	s-18.424-7.425-18.424-19.052c0-0.32,0.029-0.631,0.042-0.948h-10.168c-0.009,0.465-0.027,0.928-0.027,1.396
	c0,30.332,12.14,51.921,35.751,51.921c30.028,0,49.751-23.589,49.751-53.921C190.829,71.508,190.811,71.046,190.802,70.58z"/>
</svg>